<svg xmlns="http://www.w3.org/2000/svg" viewBox="0 0 48 48"><g data-name="Namaste hand"><path fill="#f6ccaf" d="M24,20.5V34.19a6,6,0,0,0,2.16,4.61L36,47l11-8L35.25,33.58a2,2,0,0,1-1.16-1.95l.76-11.31c.2-3.07-.35-3.52-6.28-17.93a2.24,2.24,0,0,0-4.29,1.1L25.9,18.08A2.48,2.48,0,0,0,24,20.5Z"/><path fill="#f6ccaf" d="M24,20.5V34.19a6,6,0,0,1-2.16,4.61L12,47,1,39l11.75-5.42a2,2,0,0,0,1.16-1.95c-.77-11.41-1.22-12.92,0-15.78C20,1.08,19.48,1.74,20.5,1.24a2.23,2.23,0,0,1,3.22,2.25L22.1,18.08A2.48,2.48,0,0,1,24,20.5Z"/><path fill="#ffdec7" d="M22 20.5V33.19a6 6 0 0 1-2.16 4.61l-6 5A6 6 0 0 1 6.51 43L1 39l11.75-5.42a2 2 0 0 0 1.16-1.95l-.76-11.31c-.2-3.07.35-3.52 6.28-17.93A2.23 2.23 0 0 1 20.5 1.24a2.22 2.22 0 0 1 1.23 2c0 .26.11-.86-1.63 14.85A2.48 2.48 0 0 1 22 20.5zM26 20.5V33.19a6 6 0 0 0 2.16 4.61l6 5a6 6 0 0 0 7.37.24L47 39 35.25 33.58a2 2 0 0 1-1.16-1.95l.76-11.31c.2-3.07-.35-3.52-6.28-17.93A2.23 2.23 0 0 0 27.5 1.24a2.22 2.22 0 0 0-1.23 2c0 .26-.11-.86 1.63 14.85A2.48 2.48 0 0 0 26 20.5z"/><path fill="#edb996" d="M23 18.5a1 1 0 0 1-1.15.55A1.46 1.46 0 0 0 20 20.5V27a1 1 0 0 1-2 0V20.5a3.5 3.5 0 0 1 4.21-3.42C22 18.66 21.94 17.71 23 18.5zM25 18.5a1 1 0 0 0 1.15.55A1.46 1.46 0 0 1 28 20.5V27a1 1 0 0 0 2 0V20.5a3.5 3.5 0 0 0-4.21-3.42C26 18.66 26.06 17.71 25 18.5z"/><path d="M47.42,38.09,35.67,32.67a1,1,0,0,1-.58-1C36.2,15,37.33,21,29.5,2A3.23,3.23,0,0,0,24,1.2a3.23,3.23,0,0,0-5.5.8L13,15.47c-1.3,3.15-.82,4.64-.05,16.23.07.95.09.66-12.33,6.39A1,1,0,0,0,1,40c.32,0-.67.41,12.17-5.52a3,3,0,0,0,1.74-2.92l-.76-11.31c-.2-3,.64-4,6.2-17.48a1.25,1.25,0,0,1,2.38.61L21.21,17A3.49,3.49,0,0,0,18,20.5V27a1,1,0,0,0,2,0V20.5a1.5,1.5,0,0,1,3,0V34.19A5,5,0,0,1,21.2,38l-9.84,8.2a1,1,0,0,0,1.28,1.54C23.16,39,23.18,39.16,24,37.79c.9,1.5,1.17,1.49,11.36,10a1,1,0,0,0,1.28-1.54L26.8,38A5,5,0,0,1,25,34.19V20.5a1.5,1.5,0,0,1,3,0V27a1,1,0,0,0,2,0V20.5A3.49,3.49,0,0,0,26.79,17L25.27,3.38a1.25,1.25,0,0,1,2.38-.61c5.75,14,6.38,14.69,6.2,17.48l-.76,11.31a3,3,0,0,0,1.74,2.92C47.46,40.31,46.68,40,47,40A1,1,0,0,0,47.42,38.09ZM23.18,17.45l.82-7.4.82,7.4a3.24,3.24,0,0,0-.82.61A3.24,3.24,0,0,0,23.18,17.45Z"/></g></svg>