<svg xmlns="http://www.w3.org/2000/svg" id="Layer_1" x="0" y="0" version="1.1" viewBox="0 0 52 52" xml:space="preserve"><path fill="#0096e6" d="M46.81 24.879a1.015 1.015 0 0 1-1.42-.02l-1.49-1.55-4.33-4.49-13.66-14.16-13.66 14.16-3.6 3.73-2.23 2.31c-.38.39-1.01.4-1.41.02a.996.996 0 0 1-.03-1.41l20.93-21.69 6.76 7.01 2 2.07 12.16 12.61c.39.39.37 1.03-.02 1.41z"/><path fill="#fff" d="M39.57 18.819H12.25l13.66-14.16z"/><path fill="#0096e6" d="M43.9 22.439v18.55H29.68c-.56 0-1-.45-1-1 0-.02 0-.05.01-.07.03-.52.45-.93.99-.93H41.9v-16.55c0-.89-.68-1.62-1.52-1.62h-28.2c-.85 0-1.53.73-1.53 1.62v16.55h5.39c.55 0 1 .45 1 1 0 .45-.29.82-.7.95-.09.03-.2.05-.3.05H8.65v-18.55c0-2 1.58-3.62 3.53-3.62h28.2c1.94 0 3.52 1.62 3.52 3.62z"/><path fill="#0096e6" d="M3 41.88a1 1 0 01-1-1v-9.232h6.604a1 1 0 110 2H4v7.232a1 1 0 01-1 1zM49 41.753a1 1 0 01-1-1v-7.36h-4.973a1 1 0 110-2H50v9.36a1 1 0 01-1 1z"/><path fill="#0096e6" d="M46.353 36.329a1 1 0 01-1-1V29.52a1 1 0 112 0v5.808a1 1 0 01-1 1zM6.14 36.584a1 1 0 01-1-1V28.5a1 1 0 112 0v7.084a1 1 0 01-1 1zM32.667 5.014h2v6.637h-2zM23.17 24.629c-5.17 0-9.38 4.34-9.38 9.68 0 1.67.4 3.26 1.18 4.68.23.44.5.86.8 1.27.18.24.37.47.57.68 1.77 1.95 4.21 3.05 6.83 3.05 2.08 0 4-.7 5.55-1.89.44-.33.85-.7 1.22-1.11l.24-.27c.46-.53.86-1.11 1.19-1.73a9.81 9.81 0 001.17-4.68c0-5.34-4.2-9.68-9.37-9.68zm-5.8 14.42c-1.03-1.36-1.58-3-1.58-4.74 0-4.24 3.31-7.68 7.38-7.68 4.06 0 7.37 3.44 7.37 7.68 0 4.23-3.31 7.68-7.37 7.68-2.28 0-4.39-1.07-5.8-2.94z"/><path fill="#fff" d="M30.54 34.309c0 4.23-3.31 7.68-7.37 7.68-2.28 0-4.39-1.07-5.8-2.94-1.03-1.36-1.58-3-1.58-4.74 0-4.24 3.31-7.68 7.38-7.68 4.06 0 7.37 3.44 7.37 7.68z"/><path fill="#d0e8f9" d="M41.9 22.439v16.55H31.37a9.81 9.81 0 0 0 1.17-4.68c0-5.34-4.2-9.68-9.37-9.68s-9.38 4.34-9.38 9.68c0 1.67.4 3.26 1.18 4.68h-4.32v-16.55c0-.89.68-1.62 1.53-1.62h28.2c.84 0 1.52.73 1.52 1.62z"/><g><path fill="#0096e6" d="M37.068 50.221c-.26 0-.52-.1-.715-.301l-8.134-8.341a1 1 0 1 1 1.431-1.397l8.134 8.341a1 1 0 0 1-.716 1.698z"/></g></svg>